<svg xmlns="http://www.w3.org/2000/svg" width="14" height="14" viewBox="0 0 14 14">
    <path fill="#647799" fill-rule="evenodd" d="M11.956 2.047C10.635.727 8.879 0 7.012 0 5.144 0 3.388.727 2.068 2.047-.078 4.192-.59 7.564.823 10.247l.035.065L0 14l3.69-.858.065.035c.997.525 2.124.803 3.257.803 1.868 0 3.623-.727 4.943-2.047C13.274 10.615 14 8.859 14 6.99c0-1.87-.726-3.625-2.044-4.943zM7.963 6.312l-.938 3.321c-.041.146-.02.304.058.433.077.13.207.222.355.254.125.027.197.096.222.213.023.11.01.29-.181.527-.367.453-.857.712-1.344.712-.337 0-.627-.127-.795-.35-.15-.198-.19-.46-.111-.736l.939-3.322c.04-.145.02-.303-.058-.432-.078-.13-.207-.222-.355-.254-.125-.027-.198-.096-.223-.213-.033-.157.03-.339.181-.527.376-.463.844-.718 1.32-.718.338 0 .633.134.81.366.152.203.195.46.12.726zm-.192-1.659c-.622 0-1.128-.506-1.128-1.127 0-.622.506-1.127 1.128-1.127.621 0 1.127.505 1.127 1.127 0 .621-.506 1.127-1.127 1.127z"/>
</svg>
