<?xml version="1.0" encoding="UTF-8"?>
<svg id="svg-task-icon" width="20px" height="20px" viewBox="0 0 20 20" version="1.1" xmlns="http://www.w3.org/2000/svg" xmlns:xlink="http://www.w3.org/1999/xlink">
    <title>ic-tasks-light-grey</title>
    <g id="Icon" stroke="none" stroke-width="1" fill="none" fill-rule="evenodd">
        <g id="Group" fill="currentColor" transform="translate(3.000000, 2.000000)">
            <path d="M10,0 C11.1045695,-2.02906125e-16 12,0.8954305 12,2 L12.0011864,6.10025909 C11.6777087,6.0345146 11.342885,6 11,6 C8.23857625,6 6,8.23857625 6,11 C6,13.5533572 7.91394267,15.6596891 10.3854393,15.962607 C10.2610419,15.9872094 10.1320147,16 10,16 L2,16 C0.8954305,16 2.85569802e-14,15.1045695 2.84217094e-14,14 L2.84217094e-14,2 C2.82864387e-14,0.8954305 0.8954305,2.02906125e-16 2,0 L10,0 Z M5.37142857,6.88888889 L1.77142857,6.88888889 C1.66097162,6.88888889 1.57142857,6.97843194 1.57142857,7.08888889 L1.57142857,7.08888889 L1.57142857,8.18888889 C1.57142857,8.29934584 1.66097162,8.38888889 1.77142857,8.38888889 L1.77142857,8.38888889 L5.37142857,8.38888889 C5.48188552,8.38888889 5.57142857,8.29934584 5.57142857,8.18888889 L5.57142857,8.18888889 L5.57142857,7.08888889 C5.57142857,6.97843194 5.48188552,6.88888889 5.37142857,6.88888889 L5.37142857,6.88888889 Z M8.22857143,3.33333333 L1.77142857,3.33333333 C1.66097162,3.33333333 1.57142857,3.42287638 1.57142857,3.53333333 L1.57142857,3.53333333 L1.57142857,4.63333333 C1.57142857,4.74379028 1.66097162,4.83333333 1.77142857,4.83333333 L1.77142857,4.83333333 L8.22857143,4.83333333 C8.33902838,4.83333333 8.42857143,4.74379028 8.42857143,4.63333333 L8.42857143,4.63333333 L8.42857143,3.53333333 C8.42857143,3.42287638 8.33902838,3.33333333 8.22857143,3.33333333 L8.22857143,3.33333333 Z" id="Combined-Shape"></path>
            <path d="M11,7 C13.209139,7 15,8.790861 15,11 C15,13.209139 13.209139,15 11,15 C8.790861,15 7,13.209139 7,11 C7,8.790861 8.790861,7 11,7 Z M12.3693165,9.13568685 L10.7626513,10.6904959 L10.1474987,10.0814832 L10.0862839,10.0311898 C9.97632244,9.96563856 9.89858803,9.94552214 9.82023239,9.94512307 C9.72279368,9.94463195 9.62656288,9.97461948 9.54543236,10.0328266 L9.16169885,10.3657666 L9.09580084,10.4395267 C9.02444941,10.5530434 9,10.6396244 9,10.7291461 C9,10.8610086 9.05292567,10.9887793 9.14600964,11.0805777 L9.92336797,11.8741971 L10.4327338,12.3736852 L10.5281542,12.4440418 C10.7589982,12.5424862 10.9537784,12.5058763 11.0886546,12.3746725 L13.361885,10.1673411 L13.4359271,10.0716139 C13.5483589,9.81946655 13.5059011,9.6037429 13.3625609,9.46382974 L13.0267418,9.13484769 L12.9319597,9.06482126 L12.8701314,9.03286032 C12.7002269,8.96549302 12.5042262,9.00264657 12.3693165,9.13568685 Z" id="Combined-Shape"></path>
        </g>
    </g>
</svg>